<?xml version="1.0" encoding="UTF-8"?>
<svg version="1.1" viewBox="0 0 2000 2000" width="1280" height="1280" xmlns="http://www.w3.org/2000/svg">
<path transform="translate(937,251)" d="m0 0h73l38 3 39 5 38 7 34 8 30 9 36 12 30 12 29 13 19 9 22 12 18 10 22 14 20 14 18 13 17 14 14 11 13 12 3 2v2l4 2 18 18v2l3 1 9 11 4 6-1 3-14-13-11-9-10-9-17-13-17-12-20-14-15-10-25-15-21-12-23-12-25-12-15-7-28-11-34-12-34-10-28-7-36-7-32-5-37-4-33-2h-32l-43 2-44 5-32 5-34 7-35 9-39 12-2 1 29-9 42-11 42-8 35-5 28-3 15-1h82l37 3 31 4 43 8 52 13 35 11 34 13 25 11 20 9 16 8 23 12 20 12 19 12 22 15 19 14 14 11 13 11 14 12 13 12 10 9 9 9 7 6 7 8 11 11 7 8 12 14 12 16 13 20 13 22 13 24 14 27 12 26 6 14v2l4 2 7 11 1 5-3 2 3 11 6 12 4 4 1 9 10 28 6 25 3 14 8 16 6 5v9l11 46 7 36 8 56 5 46v3h6l-2-31-2-18-3-13-1-2-2-17-2-8v-6l5 5 11 24-3-11-11-28-1-6 2-1-2-5-7-15-5-23-1-2v-6l3 2 5 9v-3l-1-5 2-2 10 11 2 1-5-15v-4l10-4-1-6-8-23-13-32-3-3h-5l-1-2v-9l1-4-4-12 5 1 9 17 13 30 13 31 12 23 11 35 14 47 8 24 1 1-1-11-1-9h2l5 13 5 22 5 28 5 38 5 51 3 44 1 46-1 25-2 10-5 3-5-3v-23l1-15v-35l-1-25-13 65-14 59-11 42-13 42-11 32-13 31-11 23-13 22-10 13-9 10-5 5-7 6-4 1-2-4v-6l2-4 6-2-1-7 8-8 13-25 7-16v-3l-12 14-14 17-18 22-11 13-9 11-10 11-7 8-9 10-8 8-7 8-7 7-8 7-15 12-9 5-14 7-11 10-8 7-8 6-14 9-10 7-14 8-6 2-2-6h-2l-1 6-10 8-5 5-7 6-4-2-3 7h-2v2l-18 13-3 3 25-11 11-7 18-8 4 1-2 4-11 8-9 7-3 3-14 4-25 11-4 2 17-3 7-5 3 1v3l9-2-2-3 1-5 4-1 2 1v5l15-5 25-7 11-5h9l25-9 16-6h4v6l-16 8-27 10-54 17-46 13-47 13-10 3-1 2h15l8 1v2l-16 4-28 5-15 4-12 5-16 9-8 5h25l4 3v3l-2 1-35 2-15 3-23 7-43 15-23 8h-2l-2 5-5 3-17 4-35 5-49 5-32 3-10 1-2 4-5 1-3-5 2-4 6-3 1-2-12 1h-14l-21-2-22-4-9-4-1-4-77-9-33-5-25-6h-8l-5-5-18-7h-5l-5 5h-3l1-8-7-1-7 4-8-1-1-1v-5l6-7 13-8 8 1 25 7 17 8 9 6h8l7-3 39-1 9-1h10l3 3 1 4-2 2-9 2h-15l-17-2h-14l-11 2 2 4h8l1-1h33l11 2 15-4 3 1 2 5 17 4 38 4 48 2 14 1 5 2 9 1v-3l-11-1-14-1-29-1-13-2-5-3 1-5h5v-2l-9-1v6l-7-1-2-2v-3h-2l-1 4h-11l-4-2v-3h-11l-4-1 1 7-10-1-6-4-1-5 5-4 14-9 2-2h19l6 1 1-2-2-5-13-5-15-2h-91l-9 2-8 5-2-1v-5l-10-1-2-1-1-4v-12l20 1 16 2h6l-12-4-16-1v-3l3-2v-2l-16-6-22-7-9-2-6-4-23-8-7 1-8-7-40-16-16-10-17-13-14-10-36-26-16-12-21-16-14-11-13-11-11-9-17-16-30-30-9-11-13-15-7-8-12-14-11-13-10-13-16-21-20-30-32-52-12-22-10-21-10-28-8-27-15-62-3-4-15-96-3-21-1-9v-57l2-18 1-60 2-16 6-25 8-23 6-14-1-10-2-7v-11l12-24 12-19 11-16 15-22 12-18 8-14 8-19 10-19 9-15 10-15 12-17 12-16 11-14 11-13 8-10 11-14 10-16 9-12 7-8h2l2-4 11-11 8-7 15-13 14-12 10-9 11-9 13-11 16-13 13-10 18-14 18-13 12-8 23-15 15-9 22-12 22-11 20-8 25-9 30-9 44-11 28-5 35-5 32-3zm64 21v2l52 3 40 5 29 5 36 8 36 10 31 10 25 9 24 10 28 13 16 8 24 13 20 12 14 8 2-1-4-4-17-11-21-13-22-12-23-11-31-14-27-11-34-12-28-8-37-8-38-6-42-4-21-1zm-29 41-34 2-40 5-29 5-27 6-26 7-35 11-27 10-26 11-29 14-19 9-41 24-33 22-19 14-13 10-10 8-14 12-8 8-8 7-24 24v2l-3 1-7 8-9 10-9 11-11 13-21 28-18 27-15 24-12 20-6 12-10 19-4 8-3 11-6 11-8 16-12 31-11 33-8 28 1 14-6 7-5 23-7 44-4 40-1 19v55l3 43 4 31 2 1 2-23 2-5 3 70 2 13 8 31 9 29 14 37 4 5 1-1-1-9-2-9-2-22-1-23-2-96-1-12v-33l3-29 7-40 9-42 10-37 7-20 5-12 5-8 6-9 4-10 3-9 16-25 7-10 19-28 24-34 14-19 14-18 10-13 11-13 9-11 15-15 10-6h3l-2 4-10 11-8 10-12 14-13 17-13 18-10 15-12 20-4 8-2 10 5-5 9-12 13-17 11-13 8-10 24-28 30-32 12-11 9-9 11-9 16-13 18-13 20-13 16-9 19-10 20-8 23-7 20-4 25-3h12l1 2-5 2-34 17-5 4h-8l-9 4-3 4-19 8-15 9-19 14-11 9-12 10-14 10-5-1h-4l-16 8-3-1 4-5 2-1v-2l4-2 7-6-3-1-17 11-14 10-13 11-8 7-10 9-6 5-14 14-7 8v2h-2l-9 11-11 14-12 17-10 15-12 19-11 19-7 14-10 19-6 14-5 25-3 12h7l3 3v9l-6 10-16 32 2 8-6 8-4 10-6 32v2h-4v-21l2-13 4-14 2-18 5-6-1-4-1-1v-8l1-4-3 1-8 18-13 40-11 42-8 38-5 28-2 13v7l-5 2 3 5-1 15v50l5 28-5 1-1 5 1 8 3 1v-8l2-1v11l-2 3-4 2v21l6 3 6 36 9 42 5 17 10 17 17 25 10 14 13 17 11 14 9 10 9 11 7 7 7 8 31 31 8 7 15 13 14 11 13 10 19 13 15 10 20 13 26 15 33 17 24 11 28 11 8 3 8 1 21 1 45 1h34l7-5v-5l-3-4h24l13-6 28-2 13-4 8-5-6 8-8 7-11 4-22 6-8 4v2h18l20-2 24-6 27-10 11-5v-2h-13l-7-2-13 1-10 1v-2l11-3 3-2v-2l-22-13-15-9-14-8-3-1v-2l27 6 15 2h21l-2-4-3-2 1-1 41-2 10-3v-4l-6-1v-2l18 3 6-5h2l2 8h9l17-5 13-7 2-3-7-2-17 2-9 2 6-8v-2l-32-5-12-3-1-1 11 1h29l13-2 16 3 4-5 4-2-2 5-4 5-1 4 1 2 3-1 1-4 15-2 35-11 10-5 8-7 15-10 13-9 5-8 6-4 6-5 17-8 11-7 16-12 12-11 8-7 24-24 7-8 13-16 12-17 8-13 7-13 4 1 1 2v6h-5l-1 1v12l-6 14-8 14-2 5v4h5l13-14 5-13 5 2 5 3h3l-3 7-8 15-1 9 7-2 7-8 6-8 8-8 5-9v-10l5 5 5-5 4-8-1-8 3-5v-2l5-2 6-5 5-10 1-9 2 1v12l-4 15-5 17 2 4 5-1 9-15 7-6 5-5 8-16 8-15 5-4 7-12 8-7 7-8 8-15 8-21 8-24 5-12 1-3 2 2-2 10 3 4 1 4-7 2-4 4-3 17-1 9-6 10-8 16-13 28-9 20v5l4-1 4-6v-2h5l3-4 4 1 8 6h2l-1-6-6-7 7-8 11-12 9-14 8-14 16-32 7-12 3-3 3-1-6 16-1 4 2 1-1 4-10 15-11 19-3 7 2 3 5 1 4-3-3-3 2-5 6-3 2-8 4-3 1-7 3-4 10-28 8-18 1-4v-8h-2l-3 6-6 10-1 1h-5l1-8 2-6 2-1v5h4l6-13 5-16 2-8v-6l-5 2-3 11h-3v-12l4-13 4-5 2-1-1 10 2 1 4-13 3-27v-81h-2l-1 39-2 12-3 6-6 27-2 10-6 11-3 6 2-9 6-40 3-28 2-28v-74l-2-27-5-38-6-31-7-28-12-36-11-26-9-19-9-16-12-19-12-16-11-14-12-16-9-15-1-4 10 6 11 10 8 7 9 10 11 17 13 17 9 11 11 14 7 10 3 10 5 14 11 24 15 32 9 27 4 2v-12l-5-24-15-49-11-30-7-16-5-6-2 3v2l-5-2-2-10h2l1 3 5-1-1-9-4-5-5-11-1-6 12 9 2 7 6 4h3v2l6 3v2l-3 2 1 3 4 3 11 36 5 17 4 16 6 22 4 28 3 12v9l-1 3 2 2 7 3 5 22 7 14-6 1 1 11 5 17 4 10h2v-8h2l-1 19-7 46-12 69-11 57-11 49-8 31-6 17-5 9-2 2-2 9-11 20-17 28-8 14-8 12-12 17-2 5-1 8v8l-2-1-1-3-5 1-2 2 1 8-2 5-7 1-10 19-14 22-11 16-5 7v2l9-2 7-3v7l-3 10-4 1 1-9-11 3-2 1-2 5v6h6l8-5v3l4-2 12-11 16-14 3-5-2-9 5 2 3 3 8-7 7-8 5-7 5-5 2-9 9-13 11-13 7-9 4-9 7-11 6-10 5-12 2-6 4-1 4-5 6-12 6-9 6-16 5-8 3-11 2-17v-9h-2l-9 21-3 5 3-11 11-41 8-21 2-6-1 10-4 18v6l3 9h2l4-14 8-42 5-37v-43l-2-23 3 2 4 34 3 9 4 1-1-15-1-11-1-23-3-8v-3l3-1-1-21-7-54-5-30h2l3 20 5 4 9 50 5 40v26l-1 36-3 37-3 27 3-1 10-40 3-13 5-27 4-26 3-29 2-36v-22l-1-38-1-20-2-9-2-2-3-16-6-22-4-13 6 2 2 4-1-9-8-4 1-5 4-4-3-15-4-11-13-27-5-10-5-7 1-4 5 1 2 4h3l-1-6-4-12-4-9-6-9h-3l1 4 8 11 1 3-6-4-4-5-2-7-2-10-8-11-12-14-13-17-3-4-1-4 12 4h2l2 5 7 6 12 22 2 1-3-9-11-23-8-17-6-10-7-6-5-12-4-10-12-19-14-20-10-13-11-14-11-13-9-11-12-13-42-42-11-9-15-13-20-15-18-13-26-17-29-17-32-17-32-15-36-14-36-12-37-10-38-8-33-5-26-3-34-2zm-230 10-8 3 3 1 8-3zm-11 4-2 2 5-1zm-5 2-2 2 5-1zm-4 2m-3 1m-3 1m-2 1m-2 1m-3 1m-2 1m-3 1m-2 1m-2 1m-3 1m-1 1m-16 7m-2 1m-2 1m-2 1m-2 1m-2 1m-2 1m-2 1m-3 1-1 2 4-2zm-4 2-13 7 2 1 14-7zm-15 8m-2 1m-3 1-1 2 4-2zm37 242-3 4v3l4-2 2-2v-3zm869 129 3 9 11 27 6 12 3 2-1-7-10-25-8-16zm-1069 43-7 9-10 18-12 27-7 21-1 7 4-2 7-14 12-22 8-14 7-8 2-4-1-5v-13zm1091 18 2 11 6 17 4 4-4-16-4-14zm-1130 46-10 19-6 15-7 24-3 18-2 15-1-18-3 2-8 29-8 33-6 32-1 18v8l5 2 2-9 6-29 9-35 10-34 6-18 4-14v-6l6 3 2-2 1-9-1-1v-8l6-28 1-7zm1218 15 1 6 2 1-1-5zm62 3v3l4 3h3l-1-5-1-1zm-155 11v10l4 2v-11zm24 5-4 1 1 12 5 1 1-4-1-6 3 1 3 7h2l-1-5-3-7zm-20 12-1 5 4 3 5-1-1-4-4-3zm-1120 8-2 4 1 1h5l1-4zm-3 12-2 8v4l3-1 3-9v-2zm1126 41v15l2 6h2v-20zm149 39 1 8 3 13 3 2-1-10-3-12zm-146 1v14l2-1v-13zm198 6 1 9 5 20 4 4-2-16-3-15-2-2zm-1389 53v5l2-3zm1319 5-1 2 3 3 2-1-1-4zm-64 1v7l1 5 2-1 1-11zm39 2-4 28v6l6 4h3v-16l-2-15v-6zm45 6-1 1-1 14 2-2 1-13zm-1335 7-3 2-2 11h4l2-13zm1283 32-5 23-5 19-2 10v16h4l3-28 3-16 3-5v1l-1 9h4l2-6v-7l-2-4-2-12zm78 29-3 8-16 63-11 42-12 38-3 3 3-24v-14l-3 3-10 27-26 65-4 8-4 2 1 7-11 29-6 14-1 4v8l4-2 17-26 10-17 9-16 6-14 3-4-1-6 2-11 2 1 1 6 4-4 19-38 10-24 3-6v-16l7-25 3-15 3-6 2-10 2-4 1-46zm-61 31 1 4zm-1 5-12 36-10 28-12 29-8 18-10 21 1 4 4 10 4-2 13-23 8-5v-2l-5-1-3 1 2-4 9-3 3-4-1-4-2-4h6l3-4 3-14 5-35 3-28v-14zm-74 52-5 12-8 21-12 25-13 24-7 11-17 28-5 11-3 10-2 2-6 1-5 4-8 11 1 2 5-4h2l2 5 7-6 8-8 12-16 8-12 6-12v-4h-2l1-4h2v-2l4-2v-3l-2-3 11-6 9-8 5-10 2-13 3-3v-3l-3-1 6-15 5-24v-8zm95 21m-1 5m-1336 22 2 6 6 14 2-1-6-17zm1355 5-2 2-5 16-9 21-1 6 3 1 3-3 8-21 4-15v-7zm-76 35-8 15-2 5v3l4-1 4-8 3-7 1-6zm-169 17-10 11-4 6v2l5-2 4-4 6-4 1-7zm225 0-5 6-8 14-1 5 4-2 8-9 6-11v-2zm-11 1m-270 138-5 5-4 7v3l4-2 5-4 7-2 2-5-4-2zm-453 117-1 3 9 1 3-1v-3zm28 5-7 6 2 1 5-3 13-2v-2zm25 9-12 6v2l6-1 9-5 1-2zm408 30-4 4 1 2 6-5zm-658 13 3 3 21 7 36-2 14-2 3-3h-50l-20-2zm160 11-29 5-1 2h12l20-4 1-3zm494 15m-175 55-27 7-17 6-16 4-42 11-64 16-31 6-34 6-6 2v4h13l10-1 43-2 26-3 28-5 25-6 27-8 25-9 24-10 16-9 5-4-1-5zm-319 15-7 2-2 4 4 1 8-2 22-1 5-1-3-2-9-1zm43 19 1 3 9 4h5l-5-5-6-2zm-41 27v3l21 1-1-3-11-1zm34 2v3h12l1-3zm127 1-8 2-23 5-5 2 1 2h10l39-5 8-2v-2l-8-2z" fill="#e7e8e8"/>
<path transform="translate(917,443)" d="m0 0 6 1 5 2 18 1 2 3-2 2-22 6-53 15-43 13-57 18-31 11-17 6-23 10-19 10-9 6-5 1-1-4 8-7-5 1-5 5-1 9-5 6-9 2-4 8-15 15-7 4-8 1-5-5-1-7 10-7 15-12 11-7 3-1 5 3-3-3 1-5 11-9 13-10 20-13 16-7h7l1-1h5l-1 4v3l17-6 38-16 28-10 50-13 38-9h3v-2l-32 4-25 2-24 6-10 3-1 1 7 2 1 3-14 3-14 2-18 6-27 13-8 4h-4l1-5 5-4 16-9 39-15 33-11 33-9 26-5 8-1h27zm-206 66-10 4-19 13-3 3 1 4 5-1 9-7 10-6 9-5 2-5zm-84 64-8 8 1 4 8-6 1-6z" fill="#e7e8e8"/>
<path transform="translate(1053,513)" d="m0 0h15l16 1h14l4-1h11l-1 5 19 3v3l-17 2-40 3-35 5-36 7-48 12-47 15-29 10-31 12-26 11-27 13-18 11-12 9-5 4-7 8-22 12-13 8-20 14-8 6h-3l1-4 6-7h2l2-4 11-9 9-8 16-12 20-14 19-12 18-10 19-10 29-13 35-14 24-9 37-13 28-8 39-9 25-4 50-4 6-1-8-1-20-1-4-1v-4z" fill="#e7e8e8"/>
<path transform="translate(762,452)" d="m0 0h5v3l-20 8-2 1 8-1 9-3h7v4l-8 4-22 5-16 3-18 7-28 12h-6l-4-2h-7l-3 5h-12l-1-3-8 4-34 24-12 9-10 8-10 9-8 10-5-1-3-1-1 2v7l-2 1h-6l-2-2-1-4-9 6-8 2-14 8-4 1 2-5 10-8 16-10 4-3h2l2-5 2-4 4 1 1 3h2v-8l18-12 12-3 17-9 20-13 15-10 16-9 6-1-1 5-5 2v2l10-2v-2l3-3-3-2 1-3 25-12 22-9 4 1-16 8-19 10 16-4 30-6 17-8z" fill="#e7e8e8"/>
<path transform="translate(690,445)" d="m0 0h3l-1 3-28 15-70 39-23 14-12 8-6 8-3 3-1-4-5 2-13 10-14 12-11 9-8 8-8 7-9 9-8 7-17 17-7 8-13 14-11 14-7 10-8 13-4 8-2 7-1 9h-5l1-9 6-15 9-17 12-17 11-14 11-13 18-20 24-24 11-9 11-10 16-12 19-14 24-16 18-11 26-15 15-8 29-13 29-12z" fill="#e7e8e8"/>
<path transform="translate(1238,1790)" d="m0 0h3l-1 3-8 4-28 9-36 9-39 8-43 6-36 3-22 1h-40l-40-3-17-3v-2h100l44-4 50-6 48-9 31-7z" fill="#e7e8e8"/>
<path transform="translate(678,691)" d="m0 0 2 1-1 4-3 2-2 6-6 2h-3l-2 6-6 8-11 9-7 6-3 4v8l-3 2-7 2-5 5-10 13-14 21-13 21-6 11-18 34-12 23-34 68-2 1 2-9 11-27 11-25 13-28 10-19 6-11 9-16 15-23 13-17 24-32 12-13 11-11 7-8 11-10 8-6z" fill="#e7e8e8"/>
<path transform="translate(1776,1285)" d="m0 0h13l-1 8-6 26-8 26-6 16-9 17-6 10-11 18-10 16-2 5h-4l1-5 3-4 7-21 19-49 9-25 9-30z" fill="#e7e8e8"/>
<path transform="translate(1301,556)" d="m0 0 8 1 21 11 17 11 22 14 18 13 16 13 7 6 6 8v3h-6l-7-4-12-6-9-9-2-5-1-2-5-1-8-7-9-6-11-7-10-5-24-8-44-11v-1h28l10 1 2 1-2-4-5-3z" fill="#e7e8e8"/>
<path transform="translate(752,590)" d="m0 0 2 1v2l-14 11-14 12-12 11-11 9-13 12-11 9-10 8-10 7-7 4h-4l1-5 7-9 13-13 14-11 11-7 5-1 2-4 8-5 6-3 2-6 4 1 12-12 9-6z" fill="#e7e8e8"/>
<path transform="translate(238,1029)" d="m0 0h1v9l-2 21 3-10 1-2 3 1-1 8-7 25-4 20-1 12v14l2 18 3 16v4l-6-2-5-10-1-3v-41l4-33 5-29 4-17z" fill="#e7e8e8"/>
<path transform="translate(901,631)" d="m0 0h13l5 2 1 5-5 5-25 10-6 3-7 1-5 5-11 7-15 7-9 1 4-4 15-9 9-5 1-2-5-2 2-4 5-5 9-6 12-6zm8 2-20 6-13 6 1 3 16-4 16-6 3-4z" fill="#e7e8e8"/>
<path transform="translate(571,964)" d="m0 0 3 1-6 16-8 19-6 17-6 20-13 55-4 13-2 1-1-2 1-14 6-29 13-47 7-22 3-16z" fill="#e7e8e8"/>
<path transform="translate(1500,662)" d="m0 0 6 1 6 4 3 3 4 1 1-3 5 1 2 2 10 2 5 8 3 5 9 7-4 1-5-2 3 7 9 11 3 5v2l-4-1-6-4-3 3-1-1v-6l-8-8h-6l-7-5-3-4v-2l-3-1-1-5 5 1 2-4 3-1-2 8 3 3h5l1-2v-10h-5l-1-1h-13l-5-4-5-5-7-3z" fill="#e7e8e8"/>
<path transform="translate(656,794)" d="m0 0 3 1-1 4-8 10-11 13-11 15-11 21-7 10h-4l1-5 13-25 13-20 8-10 9-10z" fill="#e7e8e8"/>
<path transform="translate(510,601)" d="m0 0 5 3-1 5-5 8-2 2-5-1-12 13-9 11h-2l-1-10-5-6 2-5 4-1 4 5 5-2 5-6 1-2 1-12 3-1h8z" fill="#e7e8e8"/>
<path transform="translate(1495,865)" d="m0 0h6l5 6 6 18 3 19 1 19h-4l-8-23-5-3 1-4 2-4-2-13-4-8-2-3z" fill="#e7e8e8"/>
<path transform="translate(1521,1121)" d="m0 0h3v22l-5 25-8 22-2 4-4-1-3-3 2-4h2l3-11 8-44z" fill="#e7e8e8"/>
<path transform="translate(569,929)" d="m0 0 3 1-1 6-2 5v7l3 1v-11l5-6 2 2-2 5-1 5 5-1 1 3-4 9-4-1-2-2-3 6-4 1-1-2-4 1-4 4-5-1-11-6 1-3 10-2 8-6 6-8z" fill="#e7e8e8"/>
<path transform="translate(850,657)" d="m0 0 2 2-6 5-25 14-26 14-16 8-6 1v-3l12-7h2l1-5 16-8 29-13 14-6z" fill="#e7e8e8"/>
<path transform="translate(1792,1240)" d="m0 0 4 1 1 2-1 15-4 15-3 6-1 1h-6l-2-1v-16l2-10 5-5 3-6z" fill="#e7e8e8"/>
<path transform="translate(527,1175)" d="m0 0h2v17l-2 58-4-2-2-8v-24l1-17 4-23z" fill="#e7e8e8"/>
<path transform="translate(517,618)" d="m0 0 4 4v2l6 2 1 4-7 11-3 3-7-1-2-2-7-1-2-3 6-3h2l1-8 5-3z" fill="#e7e8e8"/>
<path transform="translate(1188,546)" d="m0 0h25l27 2 14 2v3h-44l-18-2-3-1z" fill="#e7e8e8"/>
<path transform="translate(1021,517)" d="m0 0 4 1-1 5-5 2-12 2h-39l-5-2 1-2 8-1 23-1z" fill="#e7e8e8"/>
<path transform="translate(1602,868)" d="m0 0h3l9 27 6 23v5l-4-2-9-24-5-17-1-11z" fill="#e7e8e8"/>
<path transform="translate(601,872)" d="m0 0 4 1-1 8-7 16-9 17-3 1-1-12-3-6v-3l6 2h4l4-9 3-11z" fill="#e7e8e8"/>
<path transform="translate(947,1523)" d="m0 0h10l27 7 18 3 1 3h-17l-24-4-13-4-2-2z" fill="#e7e8e8"/>
<path transform="translate(757,665)" d="m0 0h2l1 3-7 9-11 9-10 9-11 11-2 1h-6v-4l7-2 8-10 8-8 11-8z" fill="#e7e8e8"/>
<path transform="translate(1245,1798)" d="m0 0h4v4l-24 7-29 7-2-1 1-4 13-4 26-6z" fill="#e7e8e8"/>
<path transform="translate(1142,559)" d="m0 0h46l1 3-6 1-41 1-19 1 1-4z" fill="#e7e8e8"/>
<path transform="translate(1410,640)" d="m0 0h10l8 2 9 6 2 4-1 6-3 1-8-6v-2l-9-3-9-5z" fill="#e7e8e8"/>
<path transform="translate(1405,540)" d="m0 0 10 6 15 13 9 9 1 3-4 1-8-6-13-11-9-9-2-5z" fill="#e7e8e8"/>
<path transform="translate(1593,759)" d="m0 0 6 5 11 16 7 11 1 4-2 1-5-3-7-9-10-17-2-7z" fill="#e7e8e8"/>
<path transform="translate(606,585)" d="m0 0h1l-1 7-11 14-19 19h-3l2-5 9-11 11-12 7-8z" fill="#e7e8e8"/>
<path transform="translate(890,514)" d="m0 0h7v3l-7 1-2 4-29 9-4-1 2-3 17-8 11-4z" fill="#e7e8e8"/>
<path transform="translate(1476,1619)" d="m0 0 5 1 1 6-3 3-8 3-3 2-5-1-6-5-1-3 4-2h11z" fill="#e7e8e8"/>
<path transform="translate(1661,718)" d="m0 0 3 1 10 15 9 17-1 3-8-7-10-16-4-7v-5z" fill="#e7e8e8"/>
<path transform="translate(1590,718)" d="m0 0 5 3 13 17 9 14 4 7v2l-4-1-12-16-7-11-8-12z" fill="#e7e8e8"/>
<path transform="translate(508,1412)" d="m0 0 4 1 2 7-1 9-2 5-4 1-1-2 1-3-5-2-1-6 3-6z" fill="#e7e8e8"/>
<path transform="translate(1613,1078)" d="m0 0h1v19l-2 10-3-2-3-13-5-7 1-3 8-2z" fill="#e7e8e8"/>
<path transform="translate(521,576)" d="m0 0h6v5l-17 12-4 3h-4l2-5 12-12z" fill="#e7e8e8"/>
<path transform="translate(1617,1036)" d="m0 0h4l-1 5-2 1-2 13v7l-4 1-4-3v-9l5-10z" fill="#e7e8e8"/>
<path transform="translate(858,417)" d="m0 0h20l-1 4-3 2-17 1-8-1-1-4 1-1z" fill="#e7e8e8"/>
<path transform="translate(420,1018)" d="m0 0h5l-1 6-11 22h-2l1-13 4-11z" fill="#e7e8e8"/>
<path transform="translate(1131,544)" d="m0 0h29l11 1v2l-23 2h-18l-1-4z" fill="#e7e8e8"/>
<path transform="translate(1681,1486)" d="m0 0 3 1-1 5-10 13-9 11-3 1 1-5 7-11 7-8 4-6z" fill="#e7e8e8"/>
<path transform="translate(525,662)" d="m0 0h3l-1 6-7 9-5 3h-2l-2 5-4 2-2-3 7-9z" fill="#e7e8e8"/>
<path transform="translate(609,741)" d="m0 0 2 1-7 11-11 13-13 17-4 3 1-5 10-13 13-16 7-10z" fill="#e7e8e8"/>
<path transform="translate(1307,1761)" d="m0 0h16v2l-25 5h-13v-3l12-3z" fill="#e7e8e8"/>
<path transform="translate(1528,1182)" d="m0 0h6l1 1v8l-3 7-3 2-5-5v-9z" fill="#e7e8e8"/>
<path transform="translate(837,524)" d="m0 0h6l1 5-9 4-5 1h-7l-2-3 4-4 5-2z" fill="#e7e8e8"/>
<path transform="translate(920,503)" d="m0 0 4 1 2 6-8 3-10 4h-3l1-4 9-8z" fill="#e7e8e8"/>
<path transform="translate(864,562)" d="m0 0h3l-1 3-15 7-14 5h-3l1-4 13-6z" fill="#e7e8e8"/>
<path transform="translate(1010,547)" d="m0 0 4 1v5l-9 4-7 2-5-1 2-4 6-4z" fill="#e7e8e8"/>
<path transform="translate(846,541)" d="m0 0h5l1 4-5 3-16 6-2-2 4-5 10-5z" fill="#e7e8e8"/>
<path transform="translate(1500,907)" d="m0 0 3 1 5 14 1 16h-3l-4-15z" fill="#e7e8e8"/>
<path transform="translate(1511,1254)" d="m0 0h2l-1 8-8 18-4 2-1-3 4-10z" fill="#e7e8e8"/>
<path transform="translate(1459,1195)" d="m0 0 4 2-1 10-4 8-4 2-1-4 4-16z" fill="#e7e8e8"/>
<path transform="translate(780,602)" d="m0 0 2 1-2 4-10 6-11 4h-3l2-4 5-3 3-4h7z" fill="#e7e8e8"/>
<path transform="translate(932,501)" d="m0 0h15l3 1 1 3-2 2-12 3h-3z" fill="#e7e8e8"/>
<path transform="translate(1482,1237)" d="m0 0h2l-1 7-9 26-2 4h-2l2-10 6-19z" fill="#e7e8e8"/>
<path transform="translate(1484,580)" d="m0 0 4 2 7 9 1 8-5-1-6-8-2-5z" fill="#e7e8e8"/>
<path transform="translate(1371,1699)" d="m0 0h14l1 3-17 5h-6l1-5z" fill="#e7e8e8"/>
<path transform="translate(424,1247)" d="m0 0 4 2 2 13v12h-3l-2-5z" fill="#e7e8e8"/>
<path transform="translate(922,600)" d="m0 0 3 3-4 8-7 5h-5l2-5 9-10z" fill="#e7e8e8"/>
<path transform="translate(1572,733)" d="m0 0 4 2 8 10v3l-6-1-11-5 4-4z" fill="#e7e8e8"/>
<path transform="translate(455,995)" d="m0 0 2 1-1 7-5 16h-4l2-12 3-10z" fill="#e7e8e8"/>
<path transform="translate(436,1294)" d="m0 0 3 1 4 10-1 5-1 1h-5l-2-6v-9z" fill="#e7e8e8"/>
<path transform="translate(1268,1778)" d="m0 0h7l-4 4-16 4h-6v-4l12-3z" fill="#e7e8e8"/>
<path transform="translate(1486,611)" d="m0 0 6 1 10 9 1 6-4-1-10-9-3-4z" fill="#e7e8e8"/>
<path transform="translate(945,597)" d="m0 0 3 1-1 6-7 4-7 2-2-1 1-5 7-3 3 1 2-4z" fill="#e7e8e8"/>
<path transform="translate(685,655)" d="m0 0 2 1-2 6-8 7-4 1-2-1 1-5 8-6z" fill="#e7e8e8"/>
<path transform="translate(1617,1100)" d="m0 0h3v20l-4 2-1-1v-13l1-7z" fill="#e7e8e8"/>
<path transform="translate(954,456)" d="m0 0h12v4l-4 1h-19l-1-2z" fill="#e7e8e8"/>
<path transform="translate(1576,1547)" d="m0 0 5 1 3 2-1 5-5 4h-5l-1-3z" fill="#e7e8e8"/>
<path transform="translate(1698,1294)" d="m0 0h2l-1 14-4 10-2 1v-10l3-13z" fill="#e7e8e8"/>
<path transform="translate(1599,1522)" d="m0 0 4 1-1 6-6 7h-3l-2-4 6-9z" fill="#e7e8e8"/>
<path transform="translate(1562,1284)" d="m0 0h3l-1 7-3 6-3 3h-5v-4l4-2 4-9z" fill="#e7e8e8"/>
<path transform="translate(498,708)" d="m0 0 2 1-1 5-11 14h-3l2-6 8-11z" fill="#e7e8e8"/>
<path transform="translate(494,696)" d="m0 0h3l-1 4-8 11-4 4h-3l2-5 10-13z" fill="#e7e8e8"/>
<path transform="translate(517,1454)" d="m0 0 4 1 5 8 2 6v6l-4-3-7-15z" fill="#5312D3"/>
<path transform="translate(229,1175)" d="m0 0h7l3 9v5l-4-1-5-8z" fill="#e7e8e8"/>
<path transform="translate(619,662)" d="m0 0 3 1-1 5-8 7-4-1 1-4 5-6z" fill="#e7e8e8"/>
<path transform="translate(1461,1063)" d="m0 0h2l1 3-1 25h-3v-27z" fill="#e7e8e8"/>
<path transform="translate(815,579)" d="m0 0h6l1 4-9 4h-5l-2-3 3-3z" fill="#e7e8e8"/>
<path transform="translate(1596,1125)" d="m0 0h2l-1 8-3 13-2 4h-2v-7l5-17z" fill="#e7e8e8"/>
<path transform="translate(1197,1739)" d="m0 0h4l-1 4-15 5h-5l1-3z" fill="#e7e8e8"/>
<path transform="translate(507,1132)" d="m0 0 4 1 1 6v12h-4l-1-7z" fill="#e7e8e8"/>
<path transform="translate(633,700)" d="m0 0 2 1 2 8v5l-5 6h-3l1-5 1-3 1-11z" fill="#e7e8e8"/>
<path transform="translate(914,541)" d="m0 0 6 1 4 2-1 4-8 1-5-1-1-3z" fill="#e7e8e8"/>
<path transform="translate(1611,1011)" d="m0 0h5l1 2v9l-1 1h-5l-2-2z" fill="#e7e8e8"/>
<path transform="translate(756,439)" d="m0 0h5l-1 4-14 4h-6l1-3z" fill="#e7e8e8"/>
<path transform="translate(814,1625)" d="m0 0h13l1 2-3 3-2 1h-9l-1-5z" fill="#e7e8e8"/>
<path transform="translate(1673,723)" d="m0 0 4 2 7 11 3 7-5-2-7-11z" fill="#e7e8e8"/>
<path transform="translate(497,1376)" d="m0 0 4 1 3 7 1 8h-4l-4-10z" fill="#e7e8e8"/>
<path transform="translate(1481,905)" d="m0 0 3 1 3 16v2h-4l-2-7-1-10z" fill="#e7e8e8"/>
<path transform="translate(1509,622)" d="m0 0 6 2 4 6-1 3-6-1-3-3-1-6z" fill="#e7e8e8"/>
<path transform="translate(518,1070)" d="m0 0h2v7l-3 13h-4l3-17z" fill="#e7e8e8"/>
<path transform="translate(667,800)" d="m0 0 3 1-2 6-5 6h-4l2-7 4-5z" fill="#e7e8e8"/>
<path transform="translate(575,754)" d="m0 0h2l-1 5-6 10-4 2-1-3 6-10z" fill="#e7e8e8"/>
<path transform="translate(486,1348)" d="m0 0 5 1 2 5v6l-5-1-4-8z" fill="#e7e8e8"/>
<path transform="translate(983,556)" d="m0 0 5 1v2l-11 3h-7l-1-3 5-2z" fill="#e7e8e8"/>
<path transform="translate(848,532)" d="m0 0 2 1-2 4-12 5-3-1 2-4 9-4z" fill="#e7e8e8"/>
<path transform="translate(333,1032)" d="m0 0 3 2-1 11-3 1-3-3v-7z" fill="#e7e8e8"/>
<path transform="translate(831,679)" d="m0 0 2 1-1 4-9 6-5 1v-3z" fill="#e7e8e8"/>
<path transform="translate(954,631)" d="m0 0h12v3l-10 2h-8v-3z" fill="#e7e8e8"/>
<path transform="translate(1422,735)" d="m0 0 4 2 5 12v3l-4-1-4-9z" fill="#e7e8e8"/>
<path transform="translate(729,430)" d="m0 0h3l-1 3-15 6h-4v-3l13-5z" fill="#e7e8e8"/>
<path transform="translate(233,861)" d="m0 0h2l5 12v6h-3l-4-11z" fill="#e7e8e8"/>
<path transform="translate(561,777)" d="m0 0 2 1-7 14-4 3-1-3 5-10z" fill="#e7e8e8"/>
<path transform="translate(789,637)" d="m0 0h2l-1 4-11 9-4 1v-3l12-10z" fill="#e7e8e8"/>
<path transform="translate(477,1145)" d="m0 0 3 2v13l-5-1v-11z" fill="#e7e8e8"/>
<path transform="translate(1689,749)" d="m0 0h2l8 15v6l-4-4-6-14z" fill="#e7e8e8"/>
<path transform="translate(591,616)" d="m0 0h2l-2 6-2 3h-2l-2 4-5 6h-3l2-5 11-12z" fill="#e7e8e8"/>
<path transform="translate(1551,1309)" d="m0 0h2l-1 7-4 6-4 1-1-2 6-10z" fill="#e7e8e8"/>
<path transform="translate(425,1192)" d="m0 0 4 1v10l-1 3-4-1v-12z" fill="#e7e8e8"/>
<path transform="translate(373,758)" d="m0 0h2l-1 5-7 9h-3l1-5 6-8z" fill="#e7e8e8"/>
<path transform="translate(1644,700)" d="m0 0h5l5 7v4l-5-1-5-7z" fill="#e7e8e8"/>
<path transform="translate(728,447)" d="m0 0h5l-2 4-5 3-2 1h-6l-1-2z" fill="#e7e8e8"/>
<path transform="translate(1567,1622)" d="m0 0 3 1-3 5-7 4-5-1v-2z" fill="#e7e8e8"/>
<path transform="translate(931,624)" d="m0 0h5l-1 4-8 3h-6v-3z" fill="#e7e8e8"/>
<path transform="translate(884,536)" d="m0 0 5 1v2l-8 2h-10l1-3z" fill="#e7e8e8"/>
<path transform="translate(514,1439)" d="m0 0 5 3-1 4-6 1-3-2v-4z" fill="#e7e8e8"/>
<path transform="translate(696,691)" d="m0 0h2l-1 5-7 10-3 1 2-6z" fill="#e7e8e8"/>
<path transform="translate(1489,1404)" d="m0 0 3 1-2 6-5 6-2-1 1-6z" fill="#e7e8e8"/>
<path transform="translate(1139,1805)" d="m0 0h3l-1 4-12 3-3-1 3-3z" fill="#e7e8e8"/>
<path transform="translate(401,1100)" d="m0 0 4 2 2 4v5h-5l-2-8z" fill="#e7e8e8"/>
<path transform="translate(1505,1604)" d="m0 0 4 1v2l-11 4-4 3v-4l7-5z" fill="#e7e8e8"/>
<path transform="translate(1585,1163)" d="m0 0h3v6l-5 6-2-1 1-7z" fill="#e7e8e8"/>
<path transform="translate(1300,852)" d="m0 0h6l1 5-5 2-5-2 1-4z" fill="#e7e8e8"/>
<path transform="translate(1071,568)" d="m0 0h9v3l-9 2-6-1 2-3z" fill="#e7e8e8"/>
<path transform="translate(1328,1735)" d="m0 0 2 2-5 3-8 3h-5l2-3z" fill="#e7e8e8"/>
<path transform="translate(990,601)" d="m0 0h7l-3 3-7 3h-6l1-3z" fill="#e7e8e8"/>
<path transform="translate(478,1115)" d="m0 0h3v10l-2 7-2-1z" fill="#e7e8e8"/>
<path transform="translate(1523,1204)" d="m0 0 4 1-4 8-4 2v-4z" fill="#e7e8e8"/>
<path transform="translate(1452,1281)" d="m0 0 3 1-3 9-4 1 1-7z" fill="#e7e8e8"/>
<path transform="translate(270,1201)" d="m0 0 3 1 4 9v2l-4-1-3-6z" fill="#e7e8e8"/>
<path transform="translate(609,710)" d="m0 0 4 1-1 4-5 4-3-1 4-7z" fill="#e7e8e8"/>
<path transform="translate(1474,590)" d="m0 0 7 4 4 3-1 3-6-3-5-4z" fill="#e7e8e8"/>
<path transform="translate(482,1076)" d="m0 0 4 2-1 8-4-1-1-6z" fill="#e7e8e8"/>
<path transform="translate(623,695)" d="m0 0h2l-1 4-6 7h-3l2-5 4-5z" fill="#e7e8e8"/>
<path transform="translate(597,549)" d="m0 0h3l-1 5-7 4v-4z" fill="#e7e8e8"/>
<path transform="translate(716,396)" d="m0 0 4 1 1 4-4 2-4-2 1-4z" fill="#e7e8e8"/>
<path transform="translate(1304,1747)" d="m0 0 2 1-4 4-7 3-4-1 5-3z" fill="#e7e8e8"/>
<path transform="translate(1701,1456)" d="m0 0h3l-2 6-3 5-3 1 1-5z" fill="#e7e8e8"/>
<path transform="translate(236,1196)" d="m0 0 4 1 1 7-5-1-1-6z" fill="#e7e8e8"/>
<path transform="translate(1215,609)" d="m0 0h13l2 1v2h-11l-4-1z" fill="#e7e8e8"/>
<path transform="translate(809,549)" d="m0 0 4 1 6 3v3l-5-1-5-3z" fill="#e7e8e8"/>
<path transform="translate(484,1381)" d="m0 0 4 1 2 6h-5l-2-3z" fill="#e7e8e8"/>
<path transform="translate(1516,1187)" d="m0 0 4 2v5l-6-1-1-3z" fill="#e7e8e8"/>
<path transform="translate(483,1056)" d="m0 0 3 1-1 12h-3z" fill="#e7e8e8"/>
<path transform="translate(433,770)" d="m0 0 4 1-1 5-6 1 1-5z" fill="#e7e8e8"/>
<path transform="translate(1300,1777)" d="m0 0h7l-1 3-10 2 2-4z" fill="#e7e8e8"/>
<path transform="translate(1495,1621)" d="m0 0h4l-2 5-4 3h-2l1-5z" fill="#e7e8e8"/>
<path transform="translate(1561,1572)" d="m0 0h4l-1 4-3 3h-4l2-5z" fill="#e7e8e8"/>
<path transform="translate(1413,1261)" d="m0 0h2l1 3-5 5-3-3z" fill="#e7e8e8"/>
<path transform="translate(1537,1140)" d="m0 0h3l-1 5-4 6h-2l3-9z" fill="#e7e8e8"/>
<path transform="translate(437,1060)" d="m0 0 2 1v11h-3v-11z" fill="#5617D4"/>
<path transform="translate(1515,950)" d="m0 0 4 1v9h-2l-2-4z" fill="#e7e8e8"/>
<path transform="translate(973,608)" d="m0 0 3 1-1 4-6 2-1-3z" fill="#e7e8e8"/>
<path transform="translate(496,1405)" d="m0 0 3 1 1 2v7l-3-1-1-2z" fill="#e7e8e8"/>
<path transform="translate(477,1172)" d="m0 0h3l-1 14h-2z" fill="#e7e8e8"/>
<path transform="translate(1510,1133)" d="m0 0h4l-1 5-1 2-4-1 1-5z" fill="#e7e8e8"/>
<path transform="translate(573,790)" d="m0 0 2 1-1 5-5 2 1-6z" fill="#e7e8e8"/>
<path transform="translate(502,685)" d="m0 0 5 2-3 5-4-1 1-5z" fill="#e7e8e8"/>
<path transform="translate(1446,592)" d="m0 0h5l1 4-2 2-4-1-1-4z" fill="#e7e8e8"/>
<path transform="translate(1488,551)" d="m0 0 6 2v4l-6-1-1-4z" fill="#e7e8e8"/>
<path transform="translate(1305,493)" d="m0 0 5 1 2 5h-5l-2-2z" fill="#e7e8e8"/>
<path transform="translate(1486,1224)" d="m0 0 3 1-2 6-4 1 1-6z" fill="#e7e8e8"/>
<path transform="translate(747,708)" d="m0 0 3 1-1 4-4 2-2-1 2-5z" fill="#e7e8e8"/>
<path transform="translate(1636,681)" d="m0 0 4 1 1 4-3 2-4-3v-3z" fill="#e7e8e8"/>
<path transform="translate(1288,479)" d="m0 0 5 2 1 3-5 1-3-2z" fill="#e7e8e8"/>
<path transform="translate(834,419)" d="m0 0 4 1-1 4h-7l2-4z" fill="#e7e8e8"/>
<path transform="translate(1143,1512)" d="m0 0 4 1 1 4-5 1-1-5z" fill="#e7e8e8"/>
<path transform="translate(581,756)" d="m0 0h6l-1 4-5 2-1-3z" fill="#e7e8e8"/>
<path transform="translate(702,448)" d="m0 0 5 1-2 4-5 1-1-2z" fill="#e7e8e8"/>
<path transform="translate(1026,403)" d="m0 0h7l1 4h-7z" fill="#e7e8e8"/>
<path transform="translate(1247,1760)" d="m0 0h6l-1 4h-7v-3z" fill="#e7e8e8"/>
<path transform="translate(339,1141)" d="m0 0 4 1v5l-5-1v-4z" fill="#e7e8e8"/>
<path transform="translate(514,1096)" d="m0 0h1v11l-2 2-1-1 1-11z" fill="#e7e8e8"/>
<path transform="translate(1470,602)" d="m0 0 6 1 2 4-7-1z" fill="#e7e8e8"/>
<path transform="translate(991,514)" d="m0 0h5l3 4v2l-5-1v-3l-1 2h-2z" fill="#e7e8e8"/>
<path transform="translate(1544,1631)" d="m0 0h4l-1 5-4 1-1-4z" fill="#e7e8e8"/>
<path transform="translate(1489,1211)" d="m0 0 3 1-1 6-3 1-1-4z" fill="#e7e8e8"/>
<path transform="translate(399,1188)" d="m0 0 3 1-1 4-4 2-1-4z" fill="#e7e8e8"/>
<path transform="translate(1616,1129)" d="m0 0 1 3-2 11-3-1 2-11z" fill="#e7e8e8"/>
<path transform="translate(1510,1112)" d="m0 0 4 1 1 1v5l-5-2z" fill="#e7e8e8"/>
<path transform="translate(1061,573)" d="m0 0h3l-1 4-2 2h-4l1-4z" fill="#e7e8e8"/>
<path transform="translate(1609,1030)" d="m0 0h6v4l-4 1-2-1z" fill="#e7e8e8"/>
<path transform="translate(541,788)" d="m0 0 3 1-2 5-4 2v-3z" fill="#e7e8e8"/>
<path transform="translate(605,543)" d="m0 0 5 1-1 4-3 1-2-2z" fill="#e7e8e8"/>
<path transform="translate(755,522)" d="m0 0h4l-1 5h-5v-3z" fill="#e7e8e8"/>
<path transform="translate(1209,1736)" d="m0 0h9l-1 3h-8z" fill="#e7e8e8"/>
<path transform="translate(638,1723)" d="m0 0 5 1 2 4h-5l-2-2z" fill="#e7e8e8"/>
<path transform="translate(932,1600)" d="m0 0 3 2-1 5-4-2v-4z" fill="#e7e8e8"/>
<path transform="translate(1586,1539)" d="m0 0 5 1-1 4-5-1z" fill="#e7e8e8"/>
<path transform="translate(1761,917)" d="m0 0 4 2 1 5h-3l-2-2z" fill="#e7e8e8"/>
<path transform="translate(1482,1609)" d="m0 0 5 5 1 3h-3l-4-5z" fill="#e7e8e8"/>
<path transform="translate(794,1329)" d="m0 0h3l1 3-2 3h-3l-1-4z" fill="#e7e8e8"/>
<path transform="translate(689,553)" d="m0 0h2l1 4-1 2-5-1 2-4z" fill="#e7e8e8"/>
<path transform="translate(1548,1585)" d="m0 0 3 1-1 5-4-1 1-4z" fill="#e7e8e8"/>
<path transform="translate(566,1460)" d="m0 0 4 2 1 5-4-1z" fill="#e7e8e8"/>
<path transform="translate(1753,1389)" d="m0 0 2 1v8l-3-1v-7z" fill="#e7e8e8"/>
<path transform="translate(1446,1171)" d="m0 0 2 1-1 5-4 1 1-6z" fill="#e7e8e8"/>
<path transform="translate(1453,1127)" d="m0 0h2l1 4-1 5h-2l-1-6z" fill="#e7e8e8"/>
<path transform="translate(1606,1122)" d="m0 0h1v12l-2 1-1-3z" fill="#e7e8e8"/>
<path transform="translate(1460,1101)" d="m0 0h2v7l-1 2h-2v-8z" fill="#e7e8e8"/>
<path transform="translate(1668,712)" d="m0 0 3 1 2 6h-3l-2-2z" fill="#e7e8e8"/>
<path transform="translate(794,647)" d="m0 0h4l-1 5-3 1-1-5z" fill="#e7e8e8"/>
<path transform="translate(819,1744)" d="m0 0h7l1 3h-8z" fill="#e7e8e8"/>
<path transform="translate(493,1138)" d="m0 0h2v11l-2 1z" fill="#e7e8e8"/>
<path transform="translate(226,852)" d="m0 0h5l1 4h-5l-2-3z" fill="#e7e8e8"/>
<path transform="translate(674,733)" d="m0 0h2l-1 6h-4l2-5z" fill="#e7e8e8"/>
<path transform="translate(1105,564)" d="m0 0h9l1 2-10 1z" fill="#e7e8e8"/>
<path transform="translate(1538,1601)" d="m0 0 4 1-1 4-3 1-1-5z" fill="#e7e8e8"/>
<path transform="translate(1493,1600)" d="m0 0h3l-1 5-5-1z" fill="#e7e8e8"/>
<path transform="translate(492,1158)" d="m0 0 2 1v8h-3z" fill="#e7e8e8"/>
<path transform="translate(1497,992)" d="m0 0 2 1v8h-2l-1-7z" fill="#e7e8e8"/>
<path transform="translate(483,930)" d="m0 0h1v6h-4l1-5z" fill="#e7e8e8"/>
<path transform="translate(522,648)" d="m0 0 5 1v3h-6z" fill="#e7e8e8"/>
<path transform="translate(580,646)" d="m0 0 3 3-3 3-3-1 1-4z" fill="#e7e8e8"/>
<path transform="translate(587,637)" d="m0 0h6l1 3h-8z" fill="#e7e8e8"/>
<path transform="translate(1569,1271)" d="m0 0h3l-1 5-4 1z" fill="#e7e8e8"/>
<path transform="translate(340,1166)" d="m0 0h2l1 7h-3z" fill="#e7e8e8"/>
<path transform="translate(617,728)" d="m0 0 4 1v4l-5-1z" fill="#e7e8e8"/>
<path transform="translate(1471,1422)" d="m0 0h2v5h-5l2-4z" fill="#e7e8e8"/>
<path transform="translate(1598,855)" d="m0 0 4 2 1 3h-4z" fill="#e7e8e8"/>
<path transform="translate(953,449)" d="m0 0h10l-2 2h-9z" fill="#e7e8e8"/>
<path transform="translate(561,1447)" d="m0 0 4 4v2l-4-1-1-4z" fill="#e7e8e8"/>
<path transform="translate(581,924)" d="m0 0h3v5l-3 1-1-3z" fill="#e7e8e8"/>
<path transform="translate(1529,1607)" d="m0 0h3l-1 5-3-1z" fill="#e7e8e8"/>
<path transform="translate(1621,1023)" d="m0 0 2 3v4l-3-1v-5z" fill="#e7e8e8"/>
<path transform="translate(1692,1320)" d="m0 0" fill="#e7e8e8"/>
<path transform="translate(1584,883)" d="m0 0" fill="#e7e8e8"/>
<path transform="translate(575,786)" d="m0 0" fill="#e7e8e8"/>
</svg>
